<?xml version="1.0" encoding="UTF-8"?>
<svg width="64px" height="64px" viewBox="0 0 64 64" version="1.1" xmlns="http://www.w3.org/2000/svg" xmlns:xlink="http://www.w3.org/1999/xlink">
    <!-- Generator: Sketch 54.1 (76490) - https://sketchapp.com -->
    <title>icon-9</title>
    <desc>Created with Sketch.</desc>
    <g id="icon-9" stroke="none" stroke-width="1" fill="none" fill-rule="evenodd">
        <path d="M46.0302881,33.4332177 C46.1032023,32.8675027 46.1560024,32.3017878 46.1560024,31.6983585 C46.1560024,31.0974448 46.1032023,30.5317298 46.0302881,29.9634994 L49.8444811,27.0469258 L49.8444812,27.0469257 C50.1885338,26.7766079 50.281728,26.2945727 50.0632243,25.9154959 L46.4426486,19.7881695 C46.2264199,19.398456 45.7386466,19.2576534 45.3388747,19.398456 L40.8383103,21.168514 L40.838311,21.1685146 C39.9003807,20.457581 38.8722896,19.8742059 37.7809348,19.4336554 L37.0970459,14.7470238 L37.0970459,14.7470239 C37.0323842,14.3096039 36.651538,13.9891721 36.2095032,14.0002801 L28.9759022,14.0002801 C28.5233302,14.0002801 28.1461869,14.3195949 28.0883595,14.7445084 L27.4019587,19.4336444 L27.4019587,19.4336444 C26.3146664,19.8809533 25.2882473,20.463857 24.347098,21.1685035 L19.8414879,19.4009574 L19.8414879,19.4009574 C19.4271495,19.236331 18.954877,19.4026996 18.7352021,19.7906709 L15.1246848,25.9129515 L15.1246848,25.9129515 C14.8961776,26.2897817 14.9895523,26.7783701 15.3409135,27.0443814 L19.1551066,29.965986 L19.1551068,29.9659841 C19.0765041,30.5410245 19.0345145,31.1204771 19.0293922,31.7008432 C19.0293922,32.2841594 19.0821922,32.8674719 19.1551065,33.4331869 L15.338409,36.3522797 L15.338409,36.3522796 C14.99522,36.623309 14.9031215,37.1052293 15.1221799,37.4837095 L18.7402401,43.6085314 C18.9564688,43.9982449 19.4442421,44.1390475 19.844014,43.9982449 L24.3445784,42.2281869 C25.2874366,42.9347008 26.2981807,43.5205325 27.4019546,43.9630461 L28.0883554,48.6521821 L28.0883554,48.6521821 C28.1563318,49.0870128 28.5359074,49.404222 28.975898,49.3938984 L36.2094991,49.3938984 C36.6620711,49.3938984 37.0392144,49.0770981 37.0970418,48.6521821 L37.7834426,43.963046 L37.7834414,43.9630465 C38.8707337,43.5157376 39.8971528,42.9328339 40.8383021,42.2281873 L45.3414078,43.9982453 C45.7587809,44.1566455 46.2289505,43.9982453 46.4476936,43.6085318 L50.0632419,37.4862512 L50.0632419,37.4862512 C50.2817445,37.1071743 50.1885514,36.625138 49.8444988,36.3548213 L46.0303057,33.4332167 L46.0302881,33.4332177 Z M32.593932,37.8910588 C29.1041006,37.8910588 26.2629704,35.1127686 26.2629704,31.6983585 C26.2629704,28.2839558 29.1041154,25.5056582 32.593932,25.5056582 C36.0837635,25.5056582 38.9223892,28.2814329 38.9223892,31.6983585 C38.9223892,35.1152768 36.0812443,37.8910588 32.593932,37.8910588 Z" id="形状" fill="#419EFF" fill-rule="nonzero"></path>
    </g>
</svg>