<?xml version="1.0" encoding="UTF-8"?>
<svg width="64px" height="64px" viewBox="0 0 64 64" version="1.1" xmlns="http://www.w3.org/2000/svg" xmlns:xlink="http://www.w3.org/1999/xlink">
    <!-- Generator: Sketch 54.1 (76490) - https://sketchapp.com -->
    <title>icon-3</title>
    <desc>Created with Sketch.</desc>
    <g id="icon-3" stroke="none" stroke-width="1" fill="none" fill-rule="evenodd">
        <path d="M48.1874507,49.8923758 L41.3499691,49.8923758 C41.3489056,49.8923758 41.3476294,49.8923758 41.3463532,49.8923758 C40.4067493,49.8923758 39.645044,49.1306704 39.645044,48.1910665 C39.645044,48.1885567 39.645044,48.1860044 39.645044,48.1835371 L39.645044,41.3463958 C39.645044,41.3442688 39.645044,41.3417165 39.645044,41.3392067 C39.645044,40.3996028 40.4067493,39.6378974 41.3463532,39.6378974 C41.3476294,39.6378974 41.3489056,39.6378974 41.3501392,39.6378974 L48.1874081,39.6378974 C49.1286285,39.6419812 49.8902488,40.4048776 49.8922907,41.3461831 L49.8922907,48.1838774 C49.8902488,49.125353 49.1286285,49.888292 48.1877485,49.8923332 L48.1874507,49.8923758 Z M48.1874507,37.0734696 L41.3499691,37.0734696 C41.3489056,37.0734696 41.3476294,37.0734696 41.3463532,37.0734696 C40.4067493,37.0734696 39.645044,36.3117642 39.645044,35.3721603 C39.645044,35.3696505 39.645044,35.3670982 39.645044,35.3646309 L39.645044,28.5364654 C39.645044,28.5343384 39.645044,28.5317861 39.645044,28.5292762 C39.645044,27.5896723 40.4067493,26.827967 41.3463532,26.827967 C41.3476294,26.827967 41.3489056,26.827967 41.3501392,26.827967 L48.1874081,26.827967 C49.1286285,26.8320508 49.8902488,27.5949472 49.8922907,28.5362527 L49.8922907,35.3559955 C49.8922907,35.357612 49.8922907,35.3594837 49.8922907,35.3613979 C49.8922907,36.304405 49.1298622,37.0693858 48.1877485,37.073427 L48.1874507,37.0734696 Z M48.1874507,24.2544783 L41.3499691,24.2544783 C41.3489056,24.2544783 41.3476294,24.2544783 41.3463532,24.2544783 C40.4067493,24.2544783 39.645044,23.492773 39.645044,22.5531691 C39.645044,22.5506593 39.645044,22.5481069 39.645044,22.5456397 L39.645044,15.7084984 C39.645044,15.7063714 39.645044,15.7038191 39.645044,15.7013092 C39.645044,14.7617053 40.4067493,14 41.3463532,14 C41.3476294,14 41.3489056,14 41.3501392,14 L48.1874081,14 C49.1286285,14.0040838 49.8902488,14.7669802 49.8922907,15.7082857 L49.8922907,22.54598 C49.8902488,23.4874556 49.1286285,24.2503946 48.1877485,24.2544358 L48.1874507,24.2544783 Z M35.3559104,49.8923758 L28.5363377,49.8923758 C28.5342108,49.8923758 28.5316584,49.8923758 28.5291486,49.8923758 C27.5841423,49.8923758 26.8175449,49.1282882 26.8135037,48.1842602 L26.8135037,41.3463958 C26.8175875,40.4019424 27.5841423,39.6378974 28.5291486,39.6378974 C28.531701,39.6378974 28.5342108,39.6378974 28.5367206,39.6378974 L35.3559104,39.6378974 C35.3580374,39.6378974 35.3605897,39.6378974 35.3630995,39.6378974 C36.3081059,39.6378974 37.0747032,40.4019849 37.0787444,41.3460129 L37.0787444,48.1838774 C37.0746607,49.1283308 36.3081059,49.8923758 35.3630995,49.8923758 C35.3605472,49.8923758 35.3580374,49.8923758 35.3555275,49.8923758 L35.3559104,49.8923758 Z M35.3559104,37.0734696 L15.7048825,37.0734696 C14.7624285,37.0693858 14,36.3044475 14,35.3614405 C14,35.3595262 14,35.3576545 14,35.3557828 L14,15.7085834 C14.0020419,14.7671078 14.7636621,14.0041688 15.7045422,14.0000851 L35.3559529,14.0000851 C35.3580799,14.0000851 35.3606322,14.0000851 35.363142,14.0000851 C36.3081484,14.0000851 37.0747458,14.7641726 37.078787,15.7082006 L37.078787,35.356038 C37.078787,35.3565485 37.078787,35.3571866 37.078787,35.3578672 C37.078787,36.3053834 36.3107008,37.0735121 35.363142,37.0735121 C35.3605897,37.0735121 35.3580799,37.0735121 35.3555701,37.0735121 L35.3559104,37.0734696 Z M15.7048825,39.6379825 L22.5423642,39.6379825 C22.5434276,39.6379825 22.5447038,39.6379825 22.54598,39.6379825 C23.4855839,39.6379825 24.2472892,40.3996878 24.2472892,41.3392917 C24.2472892,41.3418015 24.2472892,41.3443539 24.2472892,41.3468212 L24.2472892,48.1839625 C24.2472892,48.1860894 24.2472892,48.1886418 24.2472892,48.1911516 C24.2472892,49.1307555 23.4855839,49.8924608 22.54598,49.8924608 C22.5447038,49.8924608 22.5434702,49.8924608 22.542194,49.8924608 L15.7049251,49.8924608 C14.7637047,49.8883771 14.0020844,49.1254806 14.0000425,48.1841752 L14.0000425,41.3464808 C14.0020844,40.4050052 14.7637047,39.6420662 15.7045848,39.638025 L15.7048825,39.6379825 Z" id="形状" fill="#419EFF" fill-rule="nonzero"></path>
    </g>
</svg>