<?xml version="1.0" encoding="UTF-8"?>
<svg width="64px" height="64px" viewBox="0 0 64 64" version="1.1" xmlns="http://www.w3.org/2000/svg" xmlns:xlink="http://www.w3.org/1999/xlink">
    <!-- Generator: Sketch 54.1 (76490) - https://sketchapp.com -->
    <title>icon-1</title>
    <desc>Created with Sketch.</desc>
    <g id="icon-1" stroke="none" stroke-width="1" fill="none" fill-rule="evenodd">
        <path d="M43.1445313,35.9162637 L43.1445313,35.916264 C43.1445314,36.810734 43.8685707,37.5358423 44.7617188,37.5358423 C45.6548668,37.5358422 46.3789063,36.8107305 46.3789063,35.916264 L46.3789063,35.916264 C46.3789063,35.0217939 45.6548668,34.2966856 44.7617188,34.2966856 C43.8685707,34.2966856 43.1445313,35.0217939 43.1445313,35.916264 L43.1445313,35.9162637 Z M44.3003281,19.7200584 L41.6121406,15.0566516 C41.0293906,14.0461905 39.7392969,13.700042 38.7304531,14.2833546 L29.3280547,19.7200584 L44.3003281,19.7200584 Z M43.7597656,39.4195845 C41.8277891,39.4195845 40.2617188,37.8511234 40.2617188,35.916334 C40.2617188,33.9813338 41.8277891,32.4129429 43.7597656,32.4129429 L50,32.4129429 L50,23.9451371 C50,22.7784417 49.0555625,21.8325978 47.890625,21.8325978 L16.109375,21.8325978 C14.9444375,21.8325978 14,22.778512 14,23.9451371 L14,47.8874607 C14,49.0542264 14.9444375,50 16.109375,50 L47.890625,50 C49.0555625,50 50,49.0542264 50,47.8874607 L50,39.4195845 L43.7597656,39.4195845 L43.7597656,39.4195845 Z" id="形状" fill="#FFFFFF" fill-rule="nonzero"></path>
    </g>
</svg>