<?xml version="1.0" encoding="UTF-8"?>
<svg width="64px" height="64px" viewBox="0 0 64 64" version="1.1" xmlns="http://www.w3.org/2000/svg" xmlns:xlink="http://www.w3.org/1999/xlink">
    <!-- Generator: Sketch 54.1 (76490) - https://sketchapp.com -->
    <title>icon-8</title>
    <desc>Created with Sketch.</desc>
    <g id="icon-8" stroke="none" stroke-width="1" fill="none" fill-rule="evenodd">
        <path d="M31.8264221,22.1 C27.9996247,22.1 24.9,25.2764157 24.9,29.1965668 C24.9,33.1167107 27.9996036,36.2931336 31.8264221,36.2931336 C35.6532195,36.2931336 38.7528442,33.1167179 38.7528442,29.1965668 C38.7528442,25.2800722 35.6532406,22.1 31.8264221,22.1 Z M48.6815921,24.9139198 C48.4943918,24.6940986 48.0587913,24.1665279 47.4863907,23.4777549 C45.7619887,21.3967813 42.8747994,17.9162868 41.5463838,16.4398286 C40.9955831,15.827993 40.3115823,15.06961 38.9903808,15.0146547 C38.8931807,15.0109911 38.6015803,15 34.893583,15 C30.6779922,15 24.7235712,15.0146547 24.7235712,15.0146547 C24.0935705,15.0146547 23.1323694,15.1612022 22.0703681,16.4398286 C21.2927672,17.3777322 20.0867658,18.8175607 18.8663644,20.2683803 C17.3147626,22.1222054 15.7379608,24.0016906 14.992774,24.9139269 C13.7003724,26.4600024 13.6679724,28.6069152 14.9063739,30.5303503 L14.9891739,30.6439246 C16.4507756,32.3988301 19.6295934,36.1687558 23.3843907,40.6238193 L29.2199835,47.5481857 C30.2963847,48.8304758 31.1495857,49.002669 31.8407865,49.002669 C32.5643874,49.002669 33.3851883,48.8268121 34.4579896,47.5481857 L40.4952036,40.3856797 C40.6752038,40.1731859 40.855204,39.9606922 41.0316043,39.7481984 L38.3856012,37.0370708 C38.227201,36.8685412 38.1156009,36.6633748 38.0580008,36.43989 C34.3427894,39.8178084 28.7051969,39.6529425 25.1807788,36.066194 C21.6599817,32.4757818 21.4727745,26.7018271 24.7523783,22.8769247 C28.0319821,19.0557075 33.6479746,18.5061546 37.5756002,21.6239441 C41.5031907,24.7417409 42.3851918,30.4497778 39.5880026,34.6556821 C39.8724029,34.6959826 40.1352032,34.8242117 40.3404034,35.0257144 L42.8496064,37.5939582 C45.3588093,34.6190452 47.4324047,32.1533846 48.7031991,30.6293056 C49.7976004,29.2590871 50.1108008,26.6944926 48.6815991,24.9139556 L48.6815921,24.9139198 Z" id="形状" fill="#419EFF" fill-rule="nonzero"></path>
    </g>
</svg>