<?xml version="1.0" encoding="UTF-8"?>
<svg width="64px" height="64px" viewBox="0 0 64 64" version="1.1" xmlns="http://www.w3.org/2000/svg" xmlns:xlink="http://www.w3.org/1999/xlink">
    <!-- Generator: Sketch 54.1 (76490) - https://sketchapp.com -->
    <title>icon-4</title>
    <desc>Created with Sketch.</desc>
    <g id="icon-4" stroke="none" stroke-width="1" fill="none" fill-rule="evenodd">
        <path d="M51.5823294,31.2914499 L51.5823294,40.6823179 L49.4326127,40.6823179 C49.1120409,39.8148883 48.7348976,39.0794589 48.2823256,38.4948868 C46.6417523,36.3263129 43.7943204,35.7605979 41.3051746,35.2325973 C40.3057449,35.0251685 39.3628867,34.8365968 38.6086001,34.5537394 C38.2880283,34.4405964 38.0617423,34.3274534 37.910885,34.2331676 C38.7028859,33.365738 39.3817438,32.3097368 39.8720301,31.1217354 C40.4943165,29.6508765 40.8148883,28.0668747 40.8148883,26.5205872 C40.8148883,24.1445844 40.664031,21.4480098 39.5891726,19.2605787 C39.1177435,18.3177205 38.3445998,17.2428621 37.1377412,16.4885755 C37.7223133,14.4142874 39.0423149,13.0188572 41.8331752,13.0188572 C46.2268946,13.0188572 46.9057526,16.5828613 46.9057526,20.8822949 C46.9057526,23.1262975 45.9063228,25.4457288 44.4166068,26.7468731 C44.2657495,26.8788733 44.1903208,27.0674449 44.1903208,27.2560166 C44.1903208,27.7840172 44.209178,28.4817323 44.3977497,28.7457326 C45.6423225,30.4240203 49.017755,30.4617346 51.5823294,31.2914499 L51.5823294,31.2914499 Z M17.2245752,38.5514583 C18.8274342,36.2697414 21.7502947,35.6851693 24.3337263,35.1571686 C25.3520132,34.9497398 26.2948714,34.7611682 27.049158,34.4971679 C27.3508727,34.3840249 27.5771587,34.2897391 27.728016,34.1954532 C26.9360151,33.3280237 26.2760143,32.2908796 25.785728,31.1217354 C25.1634416,29.6697337 24.8428698,28.104589 24.8240126,26.5960158 C24.8051554,24.5782992 24.9182984,23.0508688 25.1822987,21.7685816 C25.559442,19.9017223 26.2571571,18.487435 27.3131583,17.4125766 C27.6714445,17.0542904 28.0674449,16.7337186 28.4823026,16.4885755 C27.8788733,14.376573 26.5777289,13 23.84344,13 C19.3177205,13 18.6765769,16.6017185 18.7142912,20.9200092 C18.7331484,23.1262975 19.7325781,25.4268716 21.203437,26.728016 C21.3542943,26.8600161 21.4297229,27.0485878 21.4297229,27.2560166 C21.4297229,27.7840172 21.3920086,28.4817323 21.203437,28.7268754 C19.9965784,30.3863059 16.5834316,30.4240203 14,31.2160212 L14,40.6634608 L16.1497168,40.6634608 C16.4702886,39.8337455 16.8285747,39.1360304 17.2245752,38.5514583 L17.2245752,38.5514583 Z M48.3388971,47.9234692 C48.3577543,48.3760412 47.9994681,48.7531845 47.5468962,48.7531845 L18.0920048,48.7531845 C17.6394328,48.7531845 17.2811467,48.3760412 17.3000038,47.9234692 C17.4131468,46.1131814 17.7902901,41.9080336 19.148006,39.9468885 C21.2222941,37.0051708 28.0297306,38.0234577 29.9343043,35.3834546 C30.1605902,35.1005971 30.1794474,34.3274534 30.1794474,33.7240241 C30.1794474,33.4977381 30.0851616,33.2903093 29.9154471,33.1205948 C28.2748738,31.649736 27.1811582,29.0851616 27.1434439,26.614873 C27.0868724,21.7685816 27.8034446,17.7331484 32.8383076,17.7331484 C37.7223133,17.7331484 38.4577427,21.7120101 38.4577427,26.5394443 C38.4577427,29.0663044 37.34517,31.649736 35.7045967,33.1205948 C35.5537394,33.2714522 35.4405964,33.478881 35.4405964,33.705167 C35.4217392,34.3085962 35.4594535,35.1005971 35.6668824,35.3834546 C37.6091703,38.0046005 44.209178,37.0617423 46.3966091,39.9468885 C47.867468,41.8514621 48.2257541,46.1131814 48.3388971,47.9234692 L48.3388971,47.9234692 Z" id="形状" fill="#419EFF" fill-rule="nonzero"></path>
    </g>
</svg>