<?xml version="1.0" encoding="UTF-8"?>
<svg width="64px" height="64px" viewBox="0 0 64 64" version="1.1" xmlns="http://www.w3.org/2000/svg" xmlns:xlink="http://www.w3.org/1999/xlink">
    <!-- Generator: Sketch 54.1 (76490) - https://sketchapp.com -->
    <title>icon-6</title>
    <desc>Created with Sketch.</desc>
    <g id="icon-6" stroke="none" stroke-width="1" fill="none" fill-rule="evenodd">
        <path d="M38.452251,14.0000089 L15.5585029,14.0000089 L15.558503,14.0000089 C14.0940981,14.0541075 12.9500718,15.2838001 13.0016796,16.7482943 L13.0016796,46.3631834 L13.0016796,46.3631845 C12.9556947,47.8238463 14.0981228,49.0473655 15.5585064,49.1014974 L30.9353611,49.1014974 L30.935361,49.1014974 C30.9702994,49.1021699 31.0049784,49.0953701 31.0370757,49.0815533 L31.0370758,49.0815536 C30.6249549,48.3709122 30.4088497,47.5636108 30.4108346,46.7421197 L30.4108346,45.3121315 L30.4108347,45.3121346 C30.334504,42.9610385 32.1707141,40.9894118 34.521295,40.8985108 L34.920174,40.8985108 L36.4997419,38.8402861 L36.4997416,38.8402858 C34.1609224,36.2520951 34.3630783,32.2579516 36.9512655,29.9191496 C37.4763653,29.4446446 38.0774757,29.0617652 38.7294865,28.7865073 L38.7294865,28.7865073 C39.3047723,28.5772982 39.9123011,28.4706425 40.5244487,28.4713919 C40.684001,28.4713919 40.8435533,28.4780399 41.0031056,28.4913359 L41.0031056,16.7482869 L41.0031056,16.7482855 C41.0547571,15.2860406 39.9142998,14.057305 38.4522644,14 L38.452251,14.0000089 Z M19.2082772,21.1399741 L25.7279731,21.1399741 L25.7279732,21.1399741 C26.485789,21.1977991 27.0532451,21.8590085 26.9954215,22.6168243 C26.9437306,23.294251 26.4053999,23.8325824 25.7279732,23.8842726 L19.2082772,23.8842726 L19.2082772,23.8842726 C18.4504614,23.8264477 17.8830053,23.1652383 17.9408289,22.4074225 C17.9925198,21.7299958 18.5308505,21.1916644 19.2082772,21.1399741 L19.2082772,21.1399741 Z M29.6908697,40.0867942 L19.2082772,40.0867942 L19.2082772,40.0867942 C18.4499085,40.0367074 17.8757353,39.3813246 17.9258218,38.6229594 C17.9712984,37.9343959 18.5197137,37.3859819 19.2082772,37.340504 L29.6888779,37.340504 L29.6888779,37.340504 C30.4472466,37.3905908 31.0214199,38.0459736 30.9713333,38.8043388 C30.9258568,39.4929023 30.3774414,40.0413163 29.6888779,40.0867942 L29.6908697,40.0867942 Z M31.609484,31.985518 L19.2082875,31.985518 L19.2082874,31.985518 C18.4504716,31.927693 17.8830155,31.2664836 17.9408391,30.5086678 C17.99253,29.8312411 18.5308608,29.2929097 19.2082874,29.2412195 L31.6074922,29.2412195 L31.6074923,29.2412195 C32.3653081,29.2990444 32.9327642,29.9602539 32.8749406,30.7180697 C32.8232497,31.3954963 32.284919,31.9338277 31.6074923,31.985518 L31.609484,31.985518 Z M48.4601908,42.956716 L47.0122559,42.956716 L43.1072241,38.3336801 L43.1072241,38.3336801 C45.2413736,37.6628366 46.4276189,35.3889428 45.7567789,33.2548001 C45.7493533,33.2311773 45.7417114,33.207623 45.7338539,33.1841405 L45.7338538,33.1841404 C45.1427333,31.5139016 43.5586564,30.4012837 41.7869259,30.4119226 L41.786926,30.4119226 C41.3355119,30.4123884 40.8870822,30.4851069 40.4586527,30.627318 L40.4586529,30.6273179 C38.3252177,31.2967603 37.138416,33.5689405 37.8078584,35.702386 C37.8156739,35.7272933 37.8237302,35.7521246 37.8320261,35.776876 L37.8320259,35.7768754 C38.2572994,36.9961638 39.2295824,37.9455618 40.4586545,38.3416763 L36.5615899,42.9726794 L35.1136549,42.9726794 L35.113655,42.9726794 C33.7849043,42.9571646 32.6949138,44.0212683 32.6784884,45.3500087 L32.6784884,46.7919614 L32.6784883,46.7919565 C32.6949092,48.1206968 33.7848974,49.1848011 35.1136481,49.1692892 L48.4621788,49.1692892 L48.4621788,49.1692892 C49.7900469,49.1826 50.8787394,48.1197662 50.8973454,46.7919599 L50.8973454,45.3440249 L50.8973455,45.3440354 C50.8841932,44.0113733 49.7948822,42.9407855 48.4621892,42.950741 L48.4601908,42.956716 Z" id="形状" fill="#419EFF" fill-rule="nonzero"></path>
    </g>
</svg>