<?xml version="1.0" encoding="UTF-8"?>
<svg width="64px" height="64px" viewBox="0 0 64 64" version="1.1" xmlns="http://www.w3.org/2000/svg" xmlns:xlink="http://www.w3.org/1999/xlink">
    <!-- Generator: Sketch 54.1 (76490) - https://sketchapp.com -->
    <title>icon-7</title>
    <desc>Created with Sketch.</desc>
    <g id="icon-7" stroke="none" stroke-width="1" fill="none" fill-rule="evenodd">
        <path d="M21.4691481,16.3754325 L44.4571725,16.3754325 L44.4571725,14.0937156 C44.4571725,13.4902863 43.9668862,13 43.3634569,13 L18.0937156,13 C17.4902863,13 17,13.4902863 17,14.0937156 L17,42.9263205 C17,43.5297498 17.4902863,44.0200361 18.0937156,44.0200361 L20.3754325,44.0200361 L20.3754325,17.4691481 C20.3754325,16.8657188 20.8657188,16.3754325 21.4691481,16.3754325 Z M49.4366045,19.1297191 C50.0400338,19.1297191 50.5303201,19.6200054 50.5303201,20.2234346 L50.5303201,49.0560396 C50.5303201,49.6594689 50.0400338,50.1497552 49.4366045,50.1497552 L24.1857203,50.1497552 C23.9028628,50.1497552 23.6200054,50.0366122 23.4125766,49.8291834 C23.2051478,49.6217546 23.0920048,49.3388971 23.0920048,49.0560396 L23.0920048,20.2234346 C23.0920048,19.6200054 23.582291,19.1297191 24.1857203,19.1297191 L49.4366045,19.1297191 Z M36.4623049,27.1062998 L36.4623049,29.3880167 L31.1634416,29.3880167 L31.1634416,39.0617423 L32.8605864,39.0617423 L32.8605864,38.1000269 L36.4623049,38.1000269 L36.4623049,42.229746 L38.2160212,42.229746 L38.2160212,38.1000269 L41.742311,38.1000269 L41.742311,38.9485993 L43.4394558,38.9485993 L43.4394558,29.3880167 L38.197164,29.3880167 L38.197164,27.1062998 L36.4623049,27.1062998 Z M32.8605864,36.4971679 L32.8605864,34.4983084 L36.4623049,34.4983084 L36.4623049,36.4971679 L32.8605864,36.4971679 Z M38.2160212,36.4971679 L38.2160212,34.4983084 L41.742311,34.4983084 L41.742311,36.4971679 L38.2160212,36.4971679 Z M32.8605864,32.9520209 L32.8605864,30.9908758 L36.4623049,30.9908758 L36.4623049,32.9520209 L32.8605864,32.9520209 Z M38.2160212,32.9520209 L38.2160212,30.9908758 L41.742311,30.9908758 L41.742311,32.9520209 L38.2160212,32.9520209 Z" id="形状" fill="#419EFF" fill-rule="nonzero"></path>
    </g>
</svg>