<?xml version="1.0" encoding="UTF-8"?>
<svg width="64px" height="64px" viewBox="0 0 64 64" version="1.1" xmlns="http://www.w3.org/2000/svg" xmlns:xlink="http://www.w3.org/1999/xlink">
    <!-- Generator: Sketch 54.1 (76490) - https://sketchapp.com -->
    <title>icon-2</title>
    <desc>Created with Sketch.</desc>
    <g id="icon-2" stroke="none" stroke-width="1" fill="none" fill-rule="evenodd">
        <path d="M37.9662193,31.1262113 L41.4876843,31.1262113 L48.6026145,24.9980128 L48.6026149,24.9980137 C48.2965147,24.2727148 47.9445278,23.5676519 47.5487945,22.8871034 L38.1118616,30.9985738 L37.9645888,31.1262113 L37.9662193,31.1262113 Z M32.8722134,14 L32.8722134,16.8865495 L35.768582,14.3861813 L35.7685834,14.3861816 C34.8154964,14.1805701 33.8475066,14.0514319 32.8738531,14.0000003 L32.8722134,14 Z M47.7729612,31.1262113 L49.8265983,29.3589362 C49.7022344,28.4949352 49.4993253,27.6571151 49.2538707,26.8389333 L44.2678649,31.1262113 L47.7729612,31.1262078 L47.7729612,31.1262113 Z M41.8918762,16.9389253 L32.8722134,24.6903953 L32.8722134,27.7209449 L43.755687,18.342934 C43.1649593,17.8340256 42.5415047,17.3676598 41.8902309,16.9389323 L41.8918762,16.9389253 Z M37.8876801,14.958923 L32.8722134,19.2740061 L32.8722134,22.3045558 L40.2194914,15.9702007 L40.2194915,15.9702008 C39.4668692,15.5788937 38.6876757,15.2409714 37.8876697,14.9589265 L37.8876801,14.958923 Z M46.5374988,21.3571218 L46.5374986,21.3571216 C46.0894422,20.7454408 45.6030092,20.1628166 45.0811387,19.6127613 L32.873855,30.1084259 L32.873855,31.1262462 L35.1974924,31.1262462 L46.5375056,21.3571567 L46.5374988,21.3571218 Z M31.1687504,14 C21.6140089,14.4484009 14,22.3143925 14,31.9771342 C14,36.1613305 15.4367286,40.0002217 17.8290826,43.0569557 L31.1687504,31.5860205 L31.1687504,14 L31.1687504,14 Z M32.333844,32.8280571 L18.9385589,44.3480705 L18.9385577,44.3480692 C22.3329714,47.9562648 27.0673953,50.0016578 32.0213034,50.0000758 C41.6856974,50.0000758 49.5517066,42.3844146 50.0000548,32.8280558 L32.3338428,32.8280558 L32.333844,32.8280571 Z" id="形状" fill="#419EFF" fill-rule="nonzero"></path>
    </g>
</svg>