<?xml version="1.0" encoding="UTF-8"?>
<svg width="64px" height="64px" viewBox="0 0 64 64" version="1.1" xmlns="http://www.w3.org/2000/svg" xmlns:xlink="http://www.w3.org/1999/xlink">
    <!-- Generator: Sketch 54.1 (76490) - https://sketchapp.com -->
    <title>icon-5</title>
    <desc>Created with Sketch.</desc>
    <g id="icon-5" stroke="none" stroke-width="1" fill="none" fill-rule="evenodd">
        <path d="M43.5518746,47.2667236 C43.946521,47.2667236 44.2667062,47.8227033 44.2667062,48.5077488 C44.2667062,49.1927942 43.946521,49.7487739 43.5518746,49.7487739 L20.1609912,49.7487739 C19.7663447,49.7487739 19.4461596,49.1927942 19.4461596,48.5077488 C19.4461596,47.8227033 19.7663447,47.2667236 20.1609912,47.2667236 L43.5518746,47.2667236 Z M49.1228403,15 C50.5525035,15.001241 51.7116223,16.1119593 51.7128658,17.4820547 L51.7128658,42.3026012 C51.7116247,43.6726966 50.5525035,44.7834124 49.1228403,44.7846559 L14.5900255,44.7846559 C13.1603623,44.7834149 12.0012435,43.6726966 12,42.3026012 L12,17.4820547 C12.001241,16.1119593 13.1603623,15.0012435 14.5900255,15 L49.1228403,15 Z M37.5279436,25.248392 L32.4471593,31.2884659 L26.9345267,28.0680021 L26.9345268,28.0680022 C26.4443541,27.7817122 25.8224105,27.8645016 25.4241964,28.2690486 L19.8023582,33.9877014 L19.8023582,33.9877014 C19.3423293,34.4957842 19.3812856,35.2805937 19.8893679,35.7406226 C20.3686594,36.1745848 21.1008382,36.1678484 21.5720625,35.7251406 L26.5163289,30.696494 L32.0972423,33.9566741 L32.0972422,33.9566741 C32.6190117,34.261539 33.2845241,34.1462537 33.6733447,33.683648 L39.5756792,26.6681413 L39.7940998,28.7493423 L39.7940998,28.7493422 C39.8660668,29.4313161 40.4772561,29.9258213 41.1592301,29.8538582 C41.8412041,29.7818912 42.3357092,29.1707019 42.2637461,28.4887279 L41.7449959,23.5556307 L41.7449959,23.5556311 C41.6805271,22.9450967 41.1793391,22.4734536 40.5660211,22.4461544 L40.5660211,22.4461543 C40.4434303,22.436351 40.3200639,22.4447149 40.1999181,22.4709749 L35.449281,22.9698692 L35.4492809,22.9698692 C34.767307,23.0418363 34.2728018,23.6530256 34.3447649,24.3349995 C34.4167319,25.0169735 35.0279212,25.5114787 35.7098951,25.4395156 C35.7098951,25.4395156 35.7098951,25.4395156 35.7098951,25.4395156 L37.5279993,25.2471563 L37.5279436,25.248392 Z" id="形状" fill="#419EFF" fill-rule="nonzero"></path>
    </g>
</svg>